<svg width="24" height="24" viewBox="0 0 24 24" fill="none" xmlns="http://www.w3.org/2000/svg">
<g id="Book">
<path id="Vector" opacity="0.4" d="M10.587 20.6526C11.023 20.9066 11.513 21.0336 12.001 21.0336C12.489 21.0336 12.977 20.9066 13.411 20.6546C14.677 19.9276 16.649 19.0286 18.858 18.8696C20.34 18.7726 21.5 17.5516 21.5 16.0906V5.75057C21.5 4.96357 21.164 4.21057 20.577 3.68557C19.981 3.15157 19.182 2.89657 18.383 2.98457C16.099 3.23157 14.146 4.13957 12.91 4.85957C12.35 5.18557 11.652 5.18657 11.09 4.85857C9.854 4.13957 7.902 3.23157 5.619 2.98457C4.821 2.89257 4.019 3.15157 3.424 3.68557C2.837 4.21057 2.5 4.96357 2.5 5.75057V16.0906C2.5 17.5506 3.66 18.7716 5.141 18.8696C7.352 19.0286 9.325 19.9276 10.587 20.6526Z" fill="url(#paint0_linear_185_226)"/>
<path id="Vector_2" d="M12.7507 4.9423V20.9322C12.5059 20.9998 12.2536 21.0338 12.0013 21.0338C11.7491 21.0338 11.4963 20.9999 11.2507 20.932V4.94189C11.7268 5.15897 12.276 5.15839 12.7507 4.9423Z" fill="url(#paint1_linear_185_226)"/>
<path id="Vector_3" d="M8.6159 10.8295C8.9139 10.8295 9.1959 10.6505 9.3129 10.3565C9.4659 9.9725 9.2779 9.5355 8.8929 9.3825L6.7079 8.5125C6.3239 8.3615 5.8869 8.5465 5.7339 8.9325C5.5809 9.3165 5.7689 9.7535 6.1539 9.9065L8.3389 10.7765C8.4289 10.8125 8.5229 10.8295 8.6159 10.8295Z" fill="url(#paint2_linear_185_226)"/>
<path id="Vector_4" d="M8.6159 15.3295C8.9139 15.3295 9.1959 15.1505 9.3129 14.8565C9.4659 14.4725 9.2779 14.0355 8.8929 13.8825L6.7079 13.0125C6.3239 12.8595 5.8869 13.0475 5.7339 13.4325C5.5809 13.8165 5.7689 14.2535 6.1539 14.4065L8.3389 15.2765C8.4289 15.3125 8.5229 15.3295 8.6159 15.3295Z" fill="url(#paint3_linear_185_226)"/>
<path id="Vector_5" d="M15.3855 10.8295C15.0875 10.8295 14.8055 10.6505 14.6885 10.3565C14.5355 9.9725 14.7235 9.5355 15.1085 9.3825L17.2935 8.5125C17.6775 8.3615 18.1145 8.5465 18.2675 8.9325C18.4205 9.3165 18.2325 9.7535 17.8475 9.9065L15.6625 10.7765C15.5725 10.8125 15.4785 10.8295 15.3855 10.8295Z" fill="url(#paint4_linear_185_226)"/>
<path id="Vector_6" d="M15.3855 15.3295C15.0875 15.3295 14.8055 15.1505 14.6885 14.8565C14.5355 14.4725 14.7235 14.0355 15.1085 13.8825L17.2935 13.0125C17.6775 12.8595 18.1145 13.0475 18.2675 13.4325C18.4205 13.8165 18.2325 14.2535 17.8475 14.4065L15.6625 15.2765C15.5725 15.3125 15.4785 15.3295 15.3855 15.3295Z" fill="url(#paint5_linear_185_226)"/>
</g>
<defs>
<linearGradient id="paint0_linear_185_226" x1="-1.99324" y1="2.96631" x2="27.9092" y2="9.00693" gradientUnits="userSpaceOnUse">
<stop stop-color="#2563EB"/>
<stop offset="1" stop-color="#4338CA"/>
</linearGradient>
<linearGradient id="paint1_linear_185_226" x1="10.8959" y1="4.94189" x2="13.3522" y2="4.98588" gradientUnits="userSpaceOnUse">
<stop stop-color="#2563EB"/>
<stop offset="1" stop-color="#4338CA"/>
</linearGradient>
<linearGradient id="paint2_linear_185_226" x1="4.8091" y1="8.45996" x2="10.3513" y2="10.1158" gradientUnits="userSpaceOnUse">
<stop stop-color="#2563EB"/>
<stop offset="1" stop-color="#4338CA"/>
</linearGradient>
<linearGradient id="paint3_linear_185_226" x1="4.8091" y1="12.9592" x2="10.3516" y2="14.6147" gradientUnits="userSpaceOnUse">
<stop stop-color="#2563EB"/>
<stop offset="1" stop-color="#4338CA"/>
</linearGradient>
<linearGradient id="paint4_linear_185_226" x1="13.7637" y1="8.45996" x2="19.3059" y2="10.1158" gradientUnits="userSpaceOnUse">
<stop stop-color="#2563EB"/>
<stop offset="1" stop-color="#4338CA"/>
</linearGradient>
<linearGradient id="paint5_linear_185_226" x1="13.7637" y1="12.9592" x2="19.3062" y2="14.6147" gradientUnits="userSpaceOnUse">
<stop stop-color="#2563EB"/>
<stop offset="1" stop-color="#4338CA"/>
</linearGradient>
</defs>
</svg>
