<svg width="24" height="25" viewBox="0 0 24 25" fill="none" xmlns="http://www.w3.org/2000/svg">
<g id="Paper 1">
<g id="Iconly/Bulk/Paper">
<g id="Paper">
<path id="Fill-3" opacity="0.4" d="M18.8088 9.521C18.3573 9.521 17.7592 9.511 17.0146 9.511C15.1987 9.511 13.7055 8.008 13.7055 6.175V2.959C13.7055 2.706 13.5036 2.5 13.253 2.5H7.96363C5.49517 2.5 3.5 4.526 3.5 7.009V17.784C3.5 20.389 5.59022 22.5 8.16958 22.5H16.0463C18.5058 22.5 20.5 20.487 20.5 18.002V9.971C20.5 9.717 20.299 9.512 20.0475 9.513C19.6247 9.516 19.1177 9.521 18.8088 9.521Z" fill="#D4D4D8"/>
<path id="Fill-1" opacity="0.4" d="M16.084 3.06731C15.785 2.75631 15.263 2.97031 15.263 3.40131V6.03831C15.263 7.14431 16.174 8.05431 17.28 8.05431C17.977 8.06231 18.945 8.06431 19.767 8.06231C20.188 8.06131 20.402 7.55831 20.11 7.25431C19.055 6.15731 17.166 4.19131 16.084 3.06731Z" fill="#D4D4D8"/>
<path id="Combined-Shape" d="M14.418 15.3928C14.829 15.3928 15.163 15.7268 15.163 16.1378C15.163 16.5488 14.829 16.8818 14.418 16.8818H8.97402C8.56302 16.8818 8.23002 16.5488 8.23002 16.1378C8.23002 15.7268 8.56302 15.3928 8.97402 15.3928H14.418ZM12.3589 10.3986C12.7699 10.3986 13.1039 10.7326 13.1039 11.1436C13.1039 11.5546 12.7699 11.8876 12.3589 11.8876H8.97392C8.56292 11.8876 8.22992 11.5546 8.22992 11.1436C8.22992 10.7326 8.56292 10.3986 8.97392 10.3986H12.3589Z" fill="#D4D4D8"/>
</g>
</g>
</g>
</svg>
