<svg width="24" height="24" viewBox="0 0 24 24" fill="none" xmlns="http://www.w3.org/2000/svg">
<g id="Translate language 1">
<path id="Vector" opacity="0.4" fill-rule="evenodd" clip-rule="evenodd" d="M10.4038 3.60938C10.4038 3.05708 9.95609 2.60938 9.40381 2.60938C8.85152 2.60938 8.40381 3.05708 8.40381 3.60938V5.29156C8.40381 5.84385 8.85152 6.29156 9.40381 6.29156C9.95609 6.29156 10.4038 5.84385 10.4038 5.29156V3.60938ZM14.2473 4.85835C14.0093 4.35998 13.4123 4.1489 12.914 4.3869C12.5068 4.58134 12.2914 5.01534 12.356 5.43944C12.3552 5.48136 12.3519 5.55 12.3434 5.64546C12.324 5.86164 12.2806 6.18108 12.1966 6.57724C12.0286 7.3697 11.7036 8.44359 11.1054 9.59412C9.91905 11.876 7.64791 14.4864 3.29096 15.8194C2.76284 15.981 2.46569 16.5401 2.62727 17.0682C2.78885 17.5963 3.34796 17.8935 3.87608 17.7319C8.81446 16.221 11.4809 13.2075 12.8799 10.5167C13.5744 9.18091 13.9539 7.93134 14.1531 6.9921C14.2527 6.52243 14.3085 6.12398 14.3354 5.82383C14.3487 5.67503 14.3557 5.5414 14.3561 5.42983C14.3563 5.37548 14.355 5.3131 14.3497 5.25025C14.347 5.21929 14.3424 5.17537 14.3332 5.12543C14.3271 5.09221 14.3067 4.98272 14.2473 4.85835Z" fill="url(#paint0_linear_185_243)"/>
<path id="Vector_2" fill-rule="evenodd" clip-rule="evenodd" d="M2 5.29102C2 4.73873 2.44772 4.29102 3 4.29102H16.5071C17.0594 4.29102 17.5071 4.73873 17.5071 5.29102C17.5071 5.8433 17.0594 6.29102 16.5071 6.29102H3C2.44772 6.29102 2 5.8433 2 5.29102ZM6.45445 9.22237C6.99192 9.09529 7.53064 9.42797 7.65772 9.96544C8.03963 11.5807 9.35562 13.4612 11.0721 14.9278C11.5668 15.3505 12.0741 15.7214 12.5789 16.0335L15.3479 10.6097C15.5187 10.2751 15.8628 10.0645 16.2385 10.0645C16.6143 10.0645 16.9583 10.2751 17.1292 10.6097L21.8907 19.9362C22.1418 20.4281 21.9466 21.0304 21.4547 21.2816C20.9628 21.5327 20.3605 21.3375 20.1094 20.8456L16.2385 13.2637L14.3827 16.8988C14.9981 17.1038 15.5786 17.1963 16.0917 17.1613C16.6427 17.1236 17.1199 17.5398 17.1576 18.0908C17.1952 18.6418 16.779 19.119 16.228 19.1566C15.3293 19.218 14.3907 19.0402 13.4651 18.696L12.3677 20.8456C12.1165 21.3375 11.5142 21.5327 11.0223 21.2816C10.5304 21.0304 10.3352 20.4281 10.5864 19.9362L11.6671 17.8193C11.001 17.419 10.3621 16.9517 9.77294 16.4484C7.86578 14.8189 6.22457 12.5961 5.71139 10.4256C5.58431 9.88817 5.91699 9.34945 6.45445 9.22237Z" fill="url(#paint1_linear_185_243)"/>
</g>
<defs>
<linearGradient id="paint0_linear_185_243" x1="-0.200872" y1="2.60937" x2="18.6641" y2="5.42235" gradientUnits="userSpaceOnUse">
<stop stop-color="#2563EB"/>
<stop offset="1" stop-color="#4338CA"/>
</linearGradient>
<linearGradient id="paint1_linear_185_243" x1="-2.72979" y1="4.29101" x2="28.4572" y2="11.2979" gradientUnits="userSpaceOnUse">
<stop stop-color="#2563EB"/>
<stop offset="1" stop-color="#4338CA"/>
</linearGradient>
</defs>
</svg>
