<svg width="24" height="24" viewBox="0 0 24 24" fill="none" xmlns="http://www.w3.org/2000/svg">
<g id="Linkedin Square">
<path id="Vector" d="M7.78216 3H16.2169C19.165 3 21 5.08119 21 8.02638V15.9736C21 18.9188 19.165 21 16.2159 21H7.78216C4.83405 21 3 18.9188 3 15.9736V8.02638C3 5.08119 4.84281 3 7.78216 3Z" stroke="#E4E4E7" stroke-width="1.5" stroke-linecap="round" stroke-linejoin="round"/>
<path id="Vector_2" d="M7.88281 10.9922V15.8005" stroke="#E4E4E7" stroke-width="1.5" stroke-linecap="round" stroke-linejoin="round"/>
<path id="Vector_3" d="M11.1611 15.801V12.4308C11.1611 11.0328 12.2955 9.89844 13.6935 9.89844C15.0927 9.89844 16.2259 11.0328 16.2259 12.4308V15.801" stroke="#E4E4E7" stroke-width="1.5" stroke-linecap="round" stroke-linejoin="round"/>
<path id="Vector_4" d="M7.88391 8.30233V8.32904M7.99214 8.30807C7.99214 8.36819 7.94336 8.41693 7.88324 8.41693C7.82312 8.41693 7.77441 8.36819 7.77441 8.30807C7.77441 8.24795 7.82312 8.19922 7.88324 8.19922C7.94336 8.19922 7.99214 8.24795 7.99214 8.30807Z" stroke="#E4E4E7" stroke-width="1.5" stroke-linecap="round" stroke-linejoin="round"/>
</g>
</svg>
